<svg xmlns="http://www.w3.org/2000/svg" width="650" height="131" fill="none"><path fill="#201C14" d="M255.609 98.884s-6.824 19.652-28.962 19.652c-17.411-.373-24.04-16.545-24.04-33.172h66.199c-.374-31.92-16.488-50.623-45.43-50.623h.005c-14.822 0-26.855 4.572-35.324 13.267-8.132 8.347-12.438 21.205-12.438 35.051 0 26.642 18.021 47.718 50.008 47.718 31.987 0 41.513-27.574 41.513-27.574l-11.531-4.324v.005Zm-52.818-26.036c.81-7.172 2.964-13.205 6.491-18.176 3.574-5.07 8.424-7.638 14.412-7.638 5.988 0 10.777 2.346 14.32 6.97 3.553 4.655 5.219 10.812 5.219 18.849l-40.447-.005h.005ZM84.272 110.359h-58.11V70.927h38.714l.02-15.136H26.164V18.47h58.114V0H0v128.871h84.272v-18.512Z"/><path fill="#201C14" d="m160.52 36.522-24.092 70.456-22.502-70.456h-29.65l33.47 92.344h25.48l33.413-92.344H160.52ZM478.714 52.482s7.029-17.736 31.802-17.736c8.06 0 17.314 3.278 22.461 9.74 5.199 6.54 7.839 16.923 7.839 30.889v53.502h-25.342V78.844c0-13.862-5.378-20.873-15.991-20.873-5.645 0-10.577 1.962-14.632 5.851-4.066 3.884-6.137 8.953-6.137 15.027v50.033h-25.363v-92.36h19.79l5.573 15.955v.005ZM305.043 54.045s7.281-19.304 32.059-19.304c4.03 0 9.429 1.067 14.186 3.526l-12.873 24.856c-3.43-3.599-7.045-5.163-12.351-5.163-5.645 0-10.577 1.963-14.633 5.852-4.065 3.883-6.136 8.953-6.136 15.027v50.032h-25.363V36.522h19.79l5.321 17.523h.011-.011ZM346.464 82.806c0 27.978 16.16 47.976 40.211 47.976 19.344 0 26.767-17.653 26.767-17.653l4.702 15.737h23.517l-6.532-21.562.252-70.782h-19.57l-4.183 13.593s-6.466-15.374-24.953-15.374c-24.051 0-40.211 20.086-40.211 48.065Zm24.086.32c0-15.565 5.461-30.82 21.795-30.82 16.335 0 16.857 14.825 16.857 31.08 0 16.254-1.307 30.805-16.857 30.805-16.334 0-21.795-15.338-21.795-31.064ZM619.125 0v52.482s-5.285-17.736-26.767-17.736c-24.051 0-40.211 20.087-40.211 48.065 0 27.978 16.16 47.976 40.211 47.976 20.62 0 26.767-17.652 26.767-17.652l4.702 15.736H650l-6.532-21.562V0H619.12h.005Zm-42.892 82.925c0-13.816 5.461-31.065 21.795-31.065 16.334 0 16.857 14.826 16.857 31.08v.938-2.15.938c0 16.254-1.307 31.08-16.857 31.08-16.334 0-21.795-17.25-21.795-31.065v.244Z"/></svg>